<svg width="21" height="21" viewBox="0 0 21 21" fill="none" xmlns="http://www.w3.org/2000/svg">
<path d="M17.9246 3.07535C15.9414 1.09221 13.3046 0 10.5 0C7.69531 0 5.0585 1.09221 3.07535 3.07535C1.09216 5.05854 0 7.69535 0 10.5C0 13.3046 1.09216 15.9414 3.07535 17.9246C5.05854 19.9078 7.69531 21 10.5 21C13.3046 21 15.9414 19.9078 17.9246 17.9246C19.9078 15.9414 21 13.3046 21 10.5C21 7.69535 19.9078 5.05858 17.9246 3.07535ZM10.5 19.7695C5.38876 19.7695 1.23047 15.6112 1.23047 10.5C1.23047 5.38876 5.38876 1.23047 10.5 1.23047C15.6112 1.23047 19.7695 5.38876 19.7695 10.5C19.7695 15.6112 15.6112 19.7695 10.5 19.7695Z" fill="#BF5B5B"/>
<path d="M6.9095 7.3779C6.67588 7.1315 6.67588 6.73202 6.9095 6.48563C7.14312 6.23924 7.52189 6.23924 7.75551 6.48563L14.5236 13.6237C14.7572 13.8701 14.7572 14.2696 14.5236 14.516C14.29 14.7624 13.9112 14.7624 13.6776 14.516L6.9095 7.3779Z" fill="#BF5B5B"/>
<path d="M13.2421 6.48557C13.4758 6.23918 13.8545 6.23918 14.0882 6.48557C14.3218 6.73197 14.3218 7.13144 14.0882 7.37784L7.32006 14.5159C7.08644 14.7623 6.70766 14.7623 6.47404 14.5159C6.24042 14.2695 6.24042 13.8701 6.47404 13.6237L13.2421 6.48557Z" fill="#BF5B5B"/>
</svg>
