<svg width="12" height="12" viewBox="0 0 12 12" fill="none" xmlns="http://www.w3.org/2000/svg">
<path d="M9.62391 2.37606C8.6561 1.40827 7.3687 0.875 6 0.875C4.63128 0.875 3.34386 1.40827 2.37606 2.37606C1.40825 3.34388 0.875 4.6313 0.875 6C0.875 7.3687 1.40825 8.6561 2.37606 9.62392C3.34388 10.5917 4.63128 11.125 6 11.125C7.3687 11.125 8.6561 10.5917 9.62392 9.62392C10.5917 8.6561 11.125 7.3687 11.125 6C11.125 4.6313 10.5917 3.3439 9.62392 2.37607L9.53553 2.46445L9.62391 2.37606ZM6 10.2891C3.63511 10.2891 1.71094 8.36489 1.71094 6C1.71094 3.63511 3.63511 1.71094 6 1.71094C8.36489 1.71094 10.2891 3.63511 10.2891 6C10.2891 8.36489 8.36489 10.2891 6 10.2891Z" fill="white" stroke="white" stroke-width="0.25"/>
<path d="M8.45751 4.32366L8.45752 4.32366C8.61098 4.47713 8.61099 4.72595 8.45751 4.87941M8.45751 4.32366L8.38681 4.80869M8.45751 4.32366C8.30406 4.17024 8.05524 4.17024 7.9018 4.32368L5.38542 6.84006M8.45751 4.32366L5.45613 6.91077M8.45751 4.87941L8.38681 4.80869M8.45751 4.87941L8.45752 4.8794L8.38681 4.80869M8.45751 4.87941L5.66326 7.67366C5.58656 7.75035 5.4858 7.78875 5.3854 7.78875C5.28501 7.78875 5.18426 7.75038 5.10754 7.67366L3.53854 6.10465C3.38507 5.95119 3.38507 5.70236 3.53854 5.54891C3.69201 5.39547 3.94082 5.39547 4.09427 5.54892L5.38542 6.84006M8.38681 4.80869L5.59255 7.60295C5.53536 7.66013 5.46036 7.68875 5.3854 7.68875C5.31044 7.68875 5.23546 7.66015 5.17825 7.60295L3.60925 6.03394C3.49483 5.91953 3.49483 5.73402 3.60925 5.61963C3.72366 5.50523 3.90917 5.50523 4.02356 5.61963L5.31471 6.91077L5.38542 6.84006M5.38542 6.84006L5.45613 6.91077M5.45613 6.91077L7.97251 4.39439C8.0869 4.28 8.27241 4.28 8.38681 4.39437L5.45613 6.91077Z" fill="white" stroke="white" stroke-width="0.2"/>
</svg>
