<svg width="12" height="12" viewBox="0 0 12 12" fill="none" xmlns="http://www.w3.org/2000/svg">
<path d="M9.62391 2.37606C8.6561 1.40827 7.3687 0.875 6 0.875C4.63128 0.875 3.34386 1.40827 2.37606 2.37606C1.40825 3.34388 0.875 4.6313 0.875 6C0.875 7.3687 1.40825 8.6561 2.37606 9.62392C3.34388 10.5917 4.63128 11.125 6 11.125C7.3687 11.125 8.6561 10.5917 9.62392 9.62392C10.5917 8.6561 11.125 7.3687 11.125 6C11.125 4.6313 10.5917 3.3439 9.62392 2.37607L9.53553 2.46445L9.62391 2.37606ZM6 10.2891C3.63511 10.2891 1.71094 8.36489 1.71094 6C1.71094 3.63511 3.63511 1.71094 6 1.71094C8.36489 1.71094 10.2891 3.63511 10.2891 6C10.2891 8.36489 8.36489 10.2891 6 10.2891Z" fill="white" stroke="white" stroke-width="0.25"/>
<path d="M4 8L8 4" stroke="white" stroke-linecap="round"/>
<path d="M8 8L4 4" stroke="white" stroke-linecap="round"/>
</svg>
