<svg width="33" height="33" viewBox="0 0 33 33" fill="none" xmlns="http://www.w3.org/2000/svg">
<circle cx="16.5" cy="16.5" r="16.5" fill="#32B38C"/>
<g clip-path="url(#clip0_611_4564)">
<path d="M14.8906 14.2285C14.8906 15.1363 15.6104 15.8749 16.495 15.8749C17.3796 15.8749 18.0994 15.1363 18.0994 14.2285C18.0994 13.3207 17.3796 12.582 16.495 12.582C15.6104 12.582 14.8906 13.3207 14.8906 14.2285ZM17.3539 14.2285C17.3539 14.7144 16.9685 15.1099 16.495 15.1099C16.0215 15.1099 15.6361 14.7144 15.6361 14.2285C15.6361 13.7425 16.0215 13.3471 16.495 13.3471C16.9685 13.3465 17.3539 13.742 17.3539 14.2285Z" fill="white"/>
<path d="M25.5724 13.614C25.6743 13.9049 25.7635 14.2023 25.8391 14.5051C26.1053 14.2222 26.3006 13.9195 26.372 13.6054C26.4449 13.2832 26.383 12.975 26.193 12.7137C25.9609 12.3942 25.5603 12.2272 25.0033 12.2159C23.2619 12.1814 20.0863 13.7099 18.3139 15.9581C18.1254 16.1968 17.9658 16.4656 17.833 16.777C17.4954 16.805 17.1589 16.8217 16.8245 16.8271L16.33 16.8325C15.9399 16.8358 15.5577 16.8255 15.1813 16.8018C15.0458 16.4796 14.8831 16.2033 14.6899 15.9581C12.917 13.7094 9.74134 12.182 7.99995 12.2154C7.44293 12.2267 7.04237 12.3942 6.81032 12.7132C6.62028 12.9745 6.55833 13.2827 6.6313 13.6048C6.7027 13.9189 6.89799 14.2217 7.16416 14.5051C7.23924 14.2018 7.32849 13.9044 7.43033 13.6135C7.39464 13.5472 7.36944 13.4858 7.35736 13.4319C7.33426 13.3295 7.34896 13.2519 7.40776 13.1717C7.48493 13.0655 7.68023 12.9987 7.94693 12.9842C7.9695 12.9831 7.99155 12.9815 8.01465 12.981C8.02882 12.9804 8.04352 12.9804 8.05822 12.9804C8.106 12.9804 8.15587 12.982 8.2068 12.9853C8.21625 12.9858 8.22622 12.9869 8.23567 12.9874C8.27977 12.9907 8.32492 12.9944 8.37112 12.9993C8.37794 12.9998 8.38477 13.0009 8.39159 13.002C8.44304 13.0079 8.49554 13.0149 8.54909 13.0235C8.55171 13.0241 8.55434 13.0246 8.55696 13.0246C8.61576 13.0338 8.67561 13.0445 8.73704 13.0569C10.2684 13.364 12.6472 14.5827 14.1098 16.4387C14.178 16.5254 14.2421 16.6186 14.3014 16.7188C12.5973 16.5066 11.0003 15.9937 9.38907 15.1505C9.01055 14.9528 8.69451 14.761 8.43097 14.5789C8.35852 14.838 8.29814 15.102 8.24984 15.3703C8.51759 15.5417 8.79216 15.6968 9.05045 15.8321C10.8779 16.7883 12.6876 17.34 14.6421 17.5259C14.9219 18.473 15.0117 19.8533 14.954 21.9388C14.9135 23.3892 14.5151 24.3859 13.8315 24.7447C13.2121 25.0701 12.4755 24.8266 11.992 24.4899L11.7825 24.8061L11.9773 24.4802C9.39905 22.8574 7.85978 20.0381 7.85978 16.9387C7.85978 16.4473 7.89968 15.9657 7.97527 15.4964L7.9737 15.4953L7.98787 15.4183C7.99942 15.3499 8.01255 15.282 8.02567 15.2141C8.0493 15.0913 8.07607 14.9695 8.10495 14.8483C8.10967 14.8273 8.11492 14.8063 8.12017 14.7858C8.14957 14.6646 8.18107 14.5439 8.21572 14.4248L8.28607 14.1727L8.29184 14.1765C8.38844 13.8753 8.50026 13.5806 8.62731 13.2945C8.41732 13.2552 8.22517 13.2352 8.0577 13.2352C8.04457 13.2352 8.03197 13.2352 8.01885 13.2358C7.9464 13.2374 7.8855 13.2428 7.83353 13.2503C7.78418 13.3721 7.73693 13.4944 7.6923 13.6183L7.66343 13.7002C7.59676 13.8904 7.53638 14.0843 7.48126 14.2804C7.48073 14.2831 7.47968 14.2858 7.47916 14.2885C7.45291 14.3817 7.42771 14.4749 7.40461 14.5687L7.39516 14.6064C7.38834 14.6344 7.38256 14.6624 7.37574 14.6904C7.37416 14.6969 7.37206 14.7034 7.37101 14.7098L7.37154 14.7104C7.20511 15.4258 7.11534 16.172 7.11534 16.9392C7.11534 20.307 8.78743 23.3703 11.5888 25.1331C12.4398 25.7193 13.4042 25.8297 14.1717 25.4262C14.8343 25.0782 15.6375 24.1946 15.6995 21.9615C15.7546 19.9756 15.679 18.5953 15.4328 17.5814C15.7304 17.5949 16.0312 17.5997 16.3368 17.5976L16.8334 17.5922C17.0797 17.5884 17.3264 17.5787 17.5747 17.5625C17.3248 18.5781 17.2476 19.9627 17.3033 21.9615C17.3652 24.1957 18.1438 25.0787 18.7859 25.4257C19.0856 25.5878 19.4222 25.6676 19.7755 25.6676C20.3068 25.6676 20.8759 25.4866 21.414 25.1326C21.4161 25.1315 21.4176 25.1299 21.4197 25.1288C21.4203 25.1283 21.4208 25.1283 21.4213 25.1283C24.2179 23.3649 25.8874 20.3043 25.8874 16.9392C25.8874 16.172 25.7976 15.4258 25.6312 14.7104C25.6317 14.7098 25.6317 14.7098 25.6323 14.7098C25.6291 14.6964 25.6249 14.6829 25.6218 14.6694C25.6155 14.6436 25.6102 14.6172 25.6039 14.5913L25.5981 14.5692C25.5766 14.483 25.5535 14.3968 25.5294 14.3101C25.5236 14.2885 25.5168 14.267 25.511 14.2454C25.4779 14.1296 25.4427 14.0137 25.4055 13.8985C25.4023 13.8888 25.3992 13.8785 25.396 13.8683C25.396 13.8683 25.3955 13.8688 25.3955 13.8694C25.3771 13.8133 25.3582 13.7573 25.3388 13.7018L25.301 13.5941C25.259 13.4788 25.2149 13.3645 25.1692 13.2514C25.1172 13.2439 25.0564 13.2385 24.9844 13.2369C24.9718 13.2369 24.9587 13.2363 24.9456 13.2363C24.7781 13.2363 24.586 13.2568 24.376 13.2961C24.5025 13.5822 24.6143 13.8764 24.7114 14.1781L24.7167 14.1743L24.7865 14.4243C24.7865 14.4248 24.787 14.4259 24.787 14.4264C24.8233 14.552 24.8569 14.6786 24.8878 14.8063C24.8894 14.8138 24.8915 14.8213 24.8931 14.8289C24.9225 14.9506 24.9487 15.074 24.9729 15.1979C24.9797 15.234 24.9876 15.2701 24.9939 15.3062C24.9949 15.3127 24.9965 15.3197 24.9976 15.3262L25.0012 15.345C25.0039 15.3596 25.0065 15.3741 25.0091 15.3887L25.0285 15.4969L25.0264 15.498C25.102 15.9678 25.1419 16.4495 25.1419 16.9403C25.1419 20.0403 23.6027 22.8596 21.0244 24.4818L21.2187 24.8072L21.0171 24.4866C20.3488 24.9284 19.6448 25.027 19.1329 24.7506C18.4641 24.3891 18.0887 23.4172 18.0477 21.941C17.9895 19.8302 18.0824 18.4418 18.3701 17.4941C20.3435 17.2716 22.3149 16.6908 23.9518 15.8342C24.2106 15.699 24.4852 15.5438 24.7529 15.3725C24.7046 15.1042 24.6432 14.8407 24.5707 14.5816C24.3072 14.7632 23.9911 14.955 23.6126 15.1532C22.1742 15.9059 20.4616 16.4349 18.726 16.679C18.778 16.5944 18.8336 16.5152 18.8919 16.4408C20.3551 14.5843 22.7338 13.3662 24.2652 13.0591C24.3261 13.0467 24.3859 13.0359 24.4442 13.0267C24.4468 13.0262 24.4495 13.0257 24.4526 13.0257C24.5062 13.0171 24.5587 13.01 24.6096 13.0041C24.6164 13.003 24.6238 13.0025 24.6306 13.0014C24.6768 12.996 24.7219 12.9923 24.766 12.9896C24.7755 12.989 24.7855 12.988 24.7949 12.9874C24.8464 12.9842 24.8957 12.9826 24.9435 12.9826C24.9582 12.9826 24.9729 12.9826 24.9871 12.9831C25.0107 12.9836 25.0327 12.9853 25.0548 12.9863C25.3215 13.0009 25.5168 13.0677 25.5939 13.1738C25.6522 13.2541 25.6674 13.3322 25.6443 13.434C25.6338 13.4858 25.6086 13.5472 25.5724 13.614Z" fill="white"/>
<path d="M16.4754 8.09902H16.5285C19.5503 8.09902 22.2136 9.70451 23.7513 12.1278C24.0295 12.0578 24.2946 12.0093 24.543 11.9835C22.9024 9.19916 19.9236 7.33398 16.5285 7.33398H16.4754C13.0803 7.33398 10.1015 9.19916 8.46094 11.9835C8.70926 12.0093 8.97438 12.0578 9.25262 12.1278C10.7903 9.70451 13.4536 8.09902 16.4754 8.09902Z" fill="white"/>
</g>
<defs>
<clipPath id="clip0_611_4564">
<rect width="19.8" height="18.3333" fill="white" transform="translate(6.60156 7.33398)"/>
</clipPath>
</defs>
</svg>
