<svg width="35" height="35" viewBox="0 0 35 35" fill="none" xmlns="http://www.w3.org/2000/svg">
<path d="M17.467 16.0693C18.3766 16.0693 19.1643 15.7661 19.8078 15.1679C20.4514 14.5698 20.7777 13.838 20.7777 12.9926C20.7777 12.1474 20.4514 11.4155 19.8077 10.8172C19.164 10.2192 18.3765 9.91602 17.467 9.91602C16.5572 9.91602 15.7698 10.2192 15.1262 10.8173C14.4826 11.4154 14.1562 12.1473 14.1562 12.9926C14.1562 13.838 14.4826 14.5699 15.1263 15.168C15.77 15.766 16.5575 16.0693 17.467 16.0693Z" fill="#4466BC"/>
<path d="M23.2603 19.7382C23.2418 19.4893 23.2042 19.2177 23.149 18.931C23.0932 18.6422 23.0213 18.3691 22.9354 18.1195C22.8465 17.8615 22.7257 17.6068 22.5764 17.3626C22.4214 17.1092 22.2393 16.8886 22.0351 16.707C21.8214 16.5171 21.5599 16.3644 21.2575 16.253C20.9561 16.1422 20.6221 16.086 20.2648 16.086C20.1245 16.086 19.9888 16.1395 19.7267 16.2981C19.5654 16.3959 19.3767 16.5089 19.1662 16.6339C18.9861 16.7406 18.7422 16.8405 18.4409 16.9309C18.1469 17.0193 17.8485 17.0641 17.5539 17.0641C17.2593 17.0641 16.961 17.0193 16.6667 16.9309C16.3657 16.8406 16.1218 16.7407 15.942 16.634C15.7334 16.5102 15.5446 16.3971 15.3809 16.298C15.1192 16.1394 14.9834 16.0859 14.8431 16.0859C14.4857 16.0859 14.1518 16.1422 13.8505 16.2531C13.5482 16.3643 13.2866 16.517 13.0728 16.7071C12.8686 16.8888 12.6864 17.1093 12.5316 17.3626C12.3824 17.6068 12.2616 17.8614 12.1727 18.1196C12.0868 18.3692 12.0149 18.6422 11.9592 18.931C11.9039 19.2174 11.8663 19.489 11.8478 19.7385C11.8295 19.9829 11.8203 20.2366 11.8203 20.4928C11.8203 21.1596 12.0484 21.6994 12.4982 22.0975C12.9424 22.4904 13.5302 22.6897 14.245 22.6897H20.8635C21.5782 22.6897 22.1658 22.4905 22.6102 22.0975C23.06 21.6997 23.2881 21.1598 23.2881 20.4927C23.288 20.2353 23.2787 19.9814 23.2603 19.7382Z" fill="#4466BC"/>
<circle cx="17.5" cy="17.5" r="17" stroke="#4466BC"/>
</svg>
