<svg width="33" height="30" viewBox="0 0 33 30" fill="none" xmlns="http://www.w3.org/2000/svg">
<g clip-path="url(#clip0_617_5083)">
<path d="M13.5664 11.2801C13.5664 12.7656 14.7442 13.9743 16.1917 13.9743C17.6393 13.9743 18.8171 12.7656 18.8171 11.2801C18.8171 9.79461 17.6393 8.58594 16.1917 8.58594C14.7442 8.58594 13.5664 9.79461 13.5664 11.2801ZM17.5972 11.2801C17.5972 12.0753 16.9666 12.7224 16.1917 12.7224C15.4169 12.7224 14.7863 12.0753 14.7863 11.2801C14.7863 10.4849 15.4169 9.83781 16.1917 9.83781C16.9666 9.83693 17.5972 10.484 17.5972 11.2801Z" fill="#32B38C"/>
<path d="M31.0432 10.2758C31.2099 10.7519 31.3559 11.2386 31.4796 11.734C31.9152 11.2712 32.2348 10.7757 32.3516 10.2617C32.471 9.73454 32.3696 9.23026 32.0586 8.80269C31.6789 8.2799 31.0235 8.0066 30.112 7.98809C27.2624 7.93167 22.0659 10.4328 19.1657 14.1117C18.8572 14.5022 18.5961 14.9422 18.3787 15.4517C17.8264 15.4976 17.2757 15.5249 16.7285 15.5337L15.9192 15.5425C15.2809 15.5478 14.6555 15.5311 14.0396 15.4923C13.8179 14.9651 13.5516 14.5128 13.2355 14.1117C10.3344 10.4319 5.13782 7.93255 2.28827 7.98721C1.37679 8.00572 0.721317 8.2799 0.341606 8.80181C0.0306209 9.22938 -0.0707499 9.73366 0.0486614 10.2609C0.165496 10.7748 0.485071 11.2703 0.920622 11.734C1.04347 11.2377 1.18951 10.751 1.35617 10.275C1.29776 10.1665 1.25652 10.066 1.23676 9.97786C1.19896 9.81036 1.22302 9.68341 1.31923 9.55205C1.44552 9.37837 1.76509 9.26905 2.2015 9.24525C2.23844 9.24349 2.27452 9.24084 2.31232 9.23996C2.33552 9.23908 2.35957 9.23908 2.38363 9.23908C2.4618 9.23908 2.54341 9.24172 2.62674 9.24701C2.64221 9.2479 2.65853 9.24966 2.67399 9.25054C2.74616 9.25583 2.82004 9.262 2.89564 9.26994C2.9068 9.27082 2.91797 9.27258 2.92914 9.27434C3.01333 9.28404 3.09924 9.2955 3.18686 9.30961C3.19116 9.31049 3.19545 9.31137 3.19975 9.31137C3.29596 9.32636 3.3939 9.34399 3.49441 9.36427C6.00033 9.86678 9.8928 11.861 12.2862 14.8981C12.3979 15.04 12.5027 15.1925 12.5997 15.3565C9.81119 15.0092 7.19788 14.1699 4.56138 12.7902C3.94199 12.4666 3.42483 12.1528 2.99357 11.8548C2.87502 12.2788 2.77622 12.7108 2.69719 13.1499C3.13532 13.4302 3.58461 13.6841 4.00728 13.9054C6.99772 15.4702 9.95895 16.373 13.1573 16.6771C13.6152 18.227 13.7621 20.4857 13.6676 23.8983C13.6014 26.2716 12.9494 27.9026 11.8309 28.4897C10.8172 29.0222 9.61188 28.6237 8.82067 28.0727L8.4779 28.5902L8.79662 28.0568C4.5777 25.4015 2.0589 20.788 2.0589 15.7162C2.0589 14.9122 2.12419 14.124 2.24789 13.3562L2.24532 13.3544L2.26851 13.2283C2.28741 13.1164 2.30889 13.0053 2.33036 12.8942C2.36902 12.6932 2.41284 12.4939 2.46008 12.2956C2.46782 12.2612 2.47641 12.2268 2.485 12.1933C2.53311 11.995 2.58465 11.7975 2.64135 11.6027L2.75647 11.1901L2.76591 11.1962C2.92398 10.7034 3.10697 10.2212 3.31486 9.75305C2.97123 9.6887 2.65681 9.65608 2.38277 9.65608C2.36129 9.65608 2.34067 9.65608 2.3192 9.65696C2.20064 9.6596 2.10099 9.66842 2.01594 9.68076C1.93519 9.88 1.85787 10.0801 1.78485 10.2829L1.7376 10.4169C1.6285 10.7281 1.52971 11.0455 1.4395 11.3664C1.43864 11.3708 1.43693 11.3752 1.43607 11.3796C1.39311 11.5321 1.35188 11.6846 1.31408 11.838L1.29862 11.8998C1.28745 11.9456 1.278 11.9914 1.26683 12.0373C1.26425 12.0479 1.26082 12.0584 1.2591 12.069L1.25996 12.0699C0.98763 13.2407 0.840728 14.4617 0.840728 15.7171C0.840728 21.228 3.57688 26.2407 8.1609 29.1253C9.55346 30.0845 11.1316 30.2653 12.3876 29.6049C13.4717 29.0354 14.7861 27.5896 14.8875 23.9354C14.9777 20.6858 14.854 18.4271 14.451 16.768C14.9381 16.79 15.4304 16.7979 15.9304 16.7944L16.7431 16.7856C17.146 16.7794 17.5497 16.7635 17.9561 16.7371C17.5472 18.3989 17.4209 20.6646 17.5119 23.9354C17.6133 27.5914 18.8873 29.0363 19.938 29.6041C20.4285 29.8694 20.9792 29.9999 21.5573 29.9999C22.4267 29.9999 23.3579 29.7037 24.2385 29.1245C24.2419 29.1227 24.2445 29.1201 24.2479 29.1183C24.2488 29.1174 24.2497 29.1174 24.2505 29.1174C28.8268 26.2319 31.5587 21.2236 31.5587 15.7171C31.5587 14.4617 31.4118 13.2407 31.1394 12.0699C31.1403 12.069 31.1403 12.069 31.1412 12.069C31.136 12.047 31.1291 12.0249 31.124 12.0029C31.1137 11.9606 31.1051 11.9174 31.0948 11.8751L31.0853 11.8389C31.0501 11.6979 31.0123 11.5568 30.9728 11.4149C30.9633 11.3796 30.9522 11.3443 30.9427 11.3091C30.8886 11.1195 30.831 10.93 30.77 10.7413C30.7649 10.7255 30.7597 10.7087 30.7546 10.692C30.7546 10.692 30.7537 10.6928 30.7537 10.6937C30.7236 10.602 30.6927 10.5103 30.6609 10.4195L30.5991 10.2432C30.5304 10.0546 30.4582 9.86766 30.3834 9.68252C30.2984 9.67018 30.1987 9.66137 30.0811 9.65872C30.0604 9.65872 30.039 9.65784 30.0175 9.65784C29.7434 9.65784 29.429 9.69134 29.0854 9.7557C29.2924 10.2238 29.4754 10.7052 29.6343 11.1989L29.6429 11.1927L29.7572 11.6018C29.7572 11.6027 29.758 11.6044 29.758 11.6053C29.8173 11.8107 29.8723 12.0179 29.923 12.2268C29.9256 12.2392 29.929 12.2515 29.9316 12.2639C29.9797 12.4631 30.0226 12.665 30.0622 12.8677C30.0733 12.9268 30.0862 12.9859 30.0965 13.045C30.0982 13.0555 30.1008 13.067 30.1025 13.0776L30.1085 13.1084C30.1128 13.1322 30.1171 13.156 30.1214 13.1798L30.1532 13.357L30.1498 13.3588C30.2735 14.1276 30.3388 14.9157 30.3388 15.7188C30.3388 20.7916 27.82 25.405 23.6011 28.0595L23.9189 28.592L23.589 28.0674C22.4954 28.7903 21.3434 28.9517 20.5058 28.4994C19.4113 27.9079 18.7971 26.3174 18.7301 23.9019C18.6347 20.4478 18.7868 18.1759 19.2576 16.6251C22.4868 16.261 25.7127 15.3107 28.3913 13.9089C28.8148 13.6876 29.2641 13.4337 29.7022 13.1534C29.6232 12.7144 29.5227 12.2832 29.4041 11.8592C28.9728 12.1563 28.4557 12.4701 27.8363 12.7946C25.4824 14.0262 22.6801 14.8919 19.84 15.2913C19.9251 15.1529 20.0161 15.0233 20.1115 14.9016C22.5057 11.8636 26.3982 9.87031 28.9041 9.36779C29.0038 9.34752 29.1017 9.32988 29.1971 9.3149C29.2014 9.31402 29.2057 9.31313 29.2108 9.31313C29.2984 9.29903 29.3843 9.28757 29.4677 9.27787C29.4788 9.27611 29.4909 9.27523 29.502 9.27346C29.5776 9.26465 29.6515 9.25848 29.7237 9.25407C29.7391 9.25319 29.7555 9.25142 29.7709 9.25054C29.8551 9.24525 29.9359 9.24261 30.014 9.24261C30.0381 9.24261 30.0622 9.24261 30.0853 9.24349C30.124 9.24437 30.1601 9.24701 30.1962 9.24878C30.6326 9.27258 30.9522 9.3819 31.0784 9.55557C31.1738 9.68693 31.1987 9.81477 31.1609 9.98139C31.1437 10.066 31.1025 10.1665 31.0432 10.2758Z" fill="#32B38C"/>
<path d="M16.1576 1.25187H16.2444C21.1892 1.25187 25.5473 3.87904 28.0635 7.84449C28.5188 7.72988 28.9527 7.65053 29.359 7.60822C26.6744 3.0521 21.8 0 16.2444 0H16.1576C10.602 0 5.72758 3.0521 3.04297 7.60822C3.44931 7.65053 3.88314 7.72988 4.33845 7.84449C6.85468 3.87904 11.2128 1.25187 16.1576 1.25187Z" fill="#32B38C"/>
</g>
<defs>
<clipPath id="clip0_617_5083">
<rect width="32.4" height="30" fill="white"/>
</clipPath>
</defs>
</svg>
