<svg width="22" height="20" viewBox="0 0 22 20" fill="none" xmlns="http://www.w3.org/2000/svg">
<path d="M0.793761 3.32045H19.6683V0.775848C19.6683 0.661054 19.6425 0.547689 19.5928 0.443929C19.5431 0.340168 19.4707 0.248599 19.3808 0.175824C19.2909 0.103048 19.1858 0.0508817 19.0731 0.0230859C18.9603 -0.00470993 18.8427 -0.00744205 18.7287 0.0150862L0.664168 2.94758C0.529653 2.97403 0.404496 3.03482 0.301149 3.12388C0.197803 3.21295 0.11987 3.32719 0.0751055 3.45524C0.303893 3.3659 0.547742 3.32016 0.793761 3.32045Z" fill="white"/>
<path d="M21.2146 4.48414H0.793761C0.585456 4.48414 0.385682 4.56587 0.238388 4.71136C0.091094 4.85685 0.00834505 5.05418 0.00834505 5.25993V19.2242C0.00834505 19.43 0.091094 19.6273 0.238388 19.7728C0.385682 19.9183 0.585456 20 0.793761 20H21.2146C21.4229 20 21.6227 19.9183 21.77 19.7728C21.9173 19.6273 22 19.43 22 19.2242V5.25993C22 5.05418 21.9173 4.85685 21.77 4.71136C21.6227 4.56587 21.4229 4.48414 21.2146 4.48414ZM16.5266 13.7937C16.216 13.7937 15.9122 13.7027 15.6539 13.5322C15.3956 13.3617 15.1943 13.1194 15.0754 12.8358C14.9565 12.5523 14.9254 12.2403 14.986 11.9394C15.0466 11.6384 15.1962 11.3619 15.4159 11.1449C15.6356 10.9279 15.9155 10.7802 16.2202 10.7203C16.5249 10.6604 16.8407 10.6912 17.1278 10.8086C17.4148 10.926 17.6601 11.1249 17.8327 11.3801C18.0053 11.6352 18.0975 11.9352 18.0975 12.2421C18.0975 12.6536 17.932 13.0482 17.6374 13.3392C17.3428 13.6302 16.9432 13.7937 16.5266 13.7937Z" fill="white"/>
<path d="M0 10.8602V3.90229C0 3.30445 0.280786 3.00625 0.756945 2.93255C2.48486 2.66442 6.08698 2.52041 6.08698 2.52041C6.08698 2.52041 5.67807 3.29621 4.74539 3.29621V4.48414C5.65352 4.48414 6.28333 5.62358 6.28333 5.62358L2.62624 9.72074L0 10.8602Z" fill="white"/>
</svg>
