<svg width="101" height="91" viewBox="0 0 101 91" fill="none" xmlns="http://www.w3.org/2000/svg">
<path d="M41.9414 33.842C41.9414 38.2984 45.5823 41.9243 50.0571 41.9243C54.5319 41.9243 58.1728 38.2984 58.1728 33.842C58.1728 29.3857 54.5319 25.7598 50.0571 25.7598C45.5823 25.7598 41.9414 29.3857 41.9414 33.842ZM54.4018 33.842C54.4018 36.2276 52.4525 38.1688 50.0571 38.1688C47.6617 38.1688 45.7125 36.2276 45.7125 33.842C45.7125 31.4565 47.6617 29.5153 50.0571 29.5153C52.4525 29.5126 54.4018 31.4539 54.4018 33.842Z" fill="white"/>
<path d="M95.9641 30.8312C96.4793 32.2594 96.9308 33.7193 97.3132 35.2056C98.6596 33.8171 99.6475 32.3308 100.009 30.7889C100.378 29.2074 100.064 27.6946 99.1031 26.4119C97.9293 24.8436 95.903 24.0237 93.0854 23.9682C84.2766 23.7989 68.2124 31.302 59.2469 42.3384C58.2935 43.51 57.4862 44.8298 56.8143 46.3584C55.1067 46.4959 53.4045 46.5779 51.7128 46.6044L49.2112 46.6308C47.238 46.6467 45.3047 46.5964 43.4006 46.4801C42.7154 44.8985 41.8922 43.5418 40.9149 42.3384C31.9467 31.2994 15.8826 23.8016 7.07374 23.9655C4.25608 24.0211 2.22981 24.8436 1.05601 26.4093C0.0946585 27.6919 -0.21871 29.2047 0.150427 30.7863C0.511598 32.3281 1.4995 33.8145 2.84593 35.2056C3.22569 33.7166 3.67715 32.2567 4.19235 30.8286C4.01176 30.5033 3.88429 30.2018 3.82321 29.9373C3.70636 29.4348 3.78072 29.054 4.07815 28.6599C4.46854 28.1389 5.45644 27.811 6.80552 27.7395C6.91971 27.7343 7.03125 27.7263 7.1481 27.7237C7.2198 27.721 7.29416 27.721 7.36852 27.721C7.61019 27.721 7.86248 27.729 8.12008 27.7448C8.16788 27.7475 8.21833 27.7528 8.26614 27.7554C8.48921 27.7713 8.7176 27.7898 8.9513 27.8136C8.98582 27.8162 9.02034 27.8215 9.05487 27.8268C9.31512 27.8559 9.58069 27.8903 9.85157 27.9326C9.86485 27.9353 9.87812 27.9379 9.8914 27.9379C10.1888 27.9829 10.4916 28.0358 10.8023 28.0966C18.5489 29.6041 30.5817 35.5864 37.9804 44.6975C38.3256 45.1233 38.6496 45.5809 38.9497 46.0728C30.3294 45.0308 22.2509 42.513 14.1006 38.374C12.1859 37.4034 10.5872 36.4619 9.25404 35.5679C8.88756 36.84 8.58216 38.136 8.33784 39.453C9.69223 40.2941 11.0811 41.0557 12.3877 41.7196C21.6321 46.414 30.7862 49.1222 40.6732 50.0346C42.0887 54.684 42.5428 61.4598 42.2507 71.6975C42.0462 78.8171 40.0305 83.7099 36.5729 85.4713C33.4392 87.0687 29.7133 85.8733 27.2674 84.2203L26.2078 85.7727L27.1931 84.1727C14.1511 76.2068 6.36468 62.3669 6.36468 47.1518C6.36468 44.7398 6.56651 42.3755 6.94893 40.0719L6.94096 40.0666L7.01266 39.6884C7.07109 39.3525 7.13748 39.0193 7.20387 38.6861C7.32338 38.0831 7.45881 37.4854 7.60488 36.8903C7.62878 36.7872 7.65533 36.684 7.68189 36.5835C7.83061 35.9885 7.98995 35.396 8.16522 34.8115L8.52108 33.5738L8.55029 33.5923C9.03893 32.1139 9.60459 30.6673 10.2473 29.2629C9.185 29.0698 8.21302 28.972 7.36587 28.972C7.29948 28.972 7.23574 28.972 7.16935 28.9746C6.80287 28.9826 6.49481 29.009 6.2319 29.046C5.98227 29.6438 5.74326 30.2441 5.51752 30.8524L5.37146 31.2544C5.03419 32.188 4.72879 33.1401 4.44995 34.1028C4.44729 34.116 4.44198 34.1292 4.43932 34.1424C4.30654 34.6 4.17907 35.0575 4.06222 35.5177L4.01442 35.7028C3.97989 35.8403 3.95068 35.9779 3.91616 36.1154C3.90819 36.1471 3.89757 36.1789 3.89226 36.2106L3.89491 36.2132C3.05307 39.7254 2.59895 43.3884 2.59895 47.1545C2.59895 63.6867 11.0572 78.7246 25.2279 87.3781C29.5327 90.2556 34.4111 90.7977 38.2937 88.8168C41.6452 87.1083 45.7083 82.771 46.0217 71.8086C46.3006 62.0602 45.9181 55.2844 44.6726 50.307C46.1784 50.3731 47.7001 50.3969 49.2457 50.3863L51.7579 50.3599C53.0035 50.3414 54.2516 50.2938 55.5077 50.2144C54.2436 55.1997 53.8533 61.9967 54.1348 71.8086C54.4481 82.7763 58.3865 87.111 61.6344 88.8142C63.1507 89.6102 64.853 90.0017 66.6403 90.0017C69.3278 90.0017 72.2066 89.113 74.9286 87.3755C74.9392 87.3702 74.9472 87.3622 74.9578 87.3569C74.9605 87.3543 74.9631 87.3543 74.9658 87.3543C89.1125 78.6981 97.5575 63.6734 97.5575 47.1545C97.5575 43.3884 97.1034 39.7254 96.2616 36.2132C96.2642 36.2106 96.2642 36.2106 96.2669 36.2106C96.2509 36.1445 96.2297 36.0784 96.2138 36.0123C96.1819 35.8853 96.1553 35.7557 96.1235 35.6288L96.0943 35.5203C95.9854 35.0972 95.8685 34.674 95.7464 34.2482C95.7171 34.1424 95.6826 34.0366 95.6534 33.9309C95.4861 33.3622 95.3082 32.7936 95.1196 32.2276C95.1037 32.18 95.0877 32.1298 95.0718 32.0795C95.0718 32.0795 95.0692 32.0822 95.0692 32.0848C94.9762 31.8098 94.8806 31.5347 94.7824 31.2623L94.5911 30.7334C94.3787 30.1674 94.1556 29.6067 93.9246 29.0513C93.6617 29.0143 93.3536 28.9879 92.9898 28.9799C92.926 28.9799 92.8597 28.9773 92.7933 28.9773C91.9461 28.9773 90.9741 29.0778 89.9119 29.2708C90.5519 30.6752 91.1175 32.1192 91.6088 33.6003L91.6354 33.5817L91.9886 34.8089C91.9886 34.8115 91.9912 34.8168 91.9912 34.8195C92.1745 35.4357 92.3445 36.0572 92.5011 36.684C92.5091 36.721 92.5197 36.7581 92.5277 36.7951C92.6764 37.3928 92.8092 37.9984 92.9314 38.6067C92.9659 38.7839 93.0057 38.9611 93.0376 39.1383C93.0429 39.1701 93.0509 39.2044 93.0562 39.2362L93.0748 39.3287C93.088 39.4001 93.1013 39.4715 93.1146 39.543L93.2129 40.0746L93.2022 40.0798C93.5846 42.386 93.7865 44.7504 93.7865 47.1598C93.7865 62.3775 86.0001 76.2174 72.9581 84.1806L73.9407 85.778L72.9209 84.2044C69.5403 86.3731 65.979 86.8571 63.3898 85.5003C60.0064 83.7257 58.1076 78.9547 57.9005 71.7081C57.6057 61.3461 58.0758 54.5306 59.5311 49.8785C69.5137 48.7863 79.4857 45.9353 87.7661 41.7301C89.0753 41.0663 90.4642 40.3046 91.8186 39.4636C91.5743 38.1465 91.2636 36.8533 90.8971 35.5812C89.564 36.4724 87.9653 37.414 86.0505 38.3872C78.774 42.0819 70.1112 44.679 61.3316 45.8771C61.5945 45.4619 61.876 45.0731 62.1708 44.7081C69.5721 35.5944 81.6049 29.6147 89.3515 28.1072C89.6596 28.0463 89.9623 27.9934 90.2571 27.9485C90.2704 27.9458 90.2837 27.9432 90.2996 27.9432C90.5705 27.9009 90.836 27.8665 91.0936 27.8374C91.1282 27.8321 91.1653 27.8295 91.1999 27.8242C91.4336 27.7977 91.6619 27.7792 91.885 27.766C91.9328 27.7634 91.9833 27.7581 92.0311 27.7554C92.2913 27.7396 92.541 27.7316 92.7826 27.7316C92.857 27.7316 92.9314 27.7316 93.0031 27.7343C93.1226 27.7369 93.2341 27.7448 93.3456 27.7501C94.6947 27.8215 95.6826 28.1495 96.073 28.6705C96.3678 29.0646 96.4448 29.448 96.3279 29.9479C96.2748 30.2018 96.1474 30.5033 95.9641 30.8312Z" fill="white"/>
<path d="M49.9437 3.75551H50.2119C65.4979 3.75551 78.9701 11.6368 86.7485 23.5328C88.156 23.189 89.4972 22.9509 90.7533 22.824C82.4543 9.15604 67.3861 0 50.2119 0H49.9437C32.7695 0 17.7013 9.15604 9.40234 22.824C10.6585 22.9509 11.9996 23.189 13.4071 23.5328C21.1855 11.6368 34.6577 3.75551 49.9437 3.75551Z" fill="white"/>
</svg>
