<svg width="22" height="20" viewBox="0 0 22 20" fill="none" xmlns="http://www.w3.org/2000/svg">
<path d="M13.2739 8.34961C13.506 8.58181 13.6902 8.85741 13.8158 9.16071C13.9415 9.46401 14.0061 9.78911 14.0061 10.1174C14.0061 10.4457 13.9414 10.7708 13.8158 11.0741C13.6901 11.3774 13.506 11.653 13.2738 11.8852C13.0417 12.1173 12.7661 12.3015 12.4628 12.4271C12.1594 12.5527 11.8344 12.6174 11.5061 12.6174C11.1777 12.6174 10.8527 12.5527 10.5493 12.427C10.246 12.3014 9.97038 12.1173 9.73828 11.8851" stroke="#6E6E6E" stroke-width="1.5" stroke-linecap="round"/>
<path d="M10.7385 3.88477C6.77858 3.88477 3.7497 6.15926 1.21405 9.28217C0.928686 9.63357 0.928636 10.1359 1.21399 10.4873C1.92566 11.3638 2.67618 12.1735 3.47524 12.8848M6.47898 14.9196C7.77301 15.5343 9.18405 15.8848 10.7385 15.8848C14.6985 15.8848 17.7274 13.6103 20.263 10.4874C20.5484 10.136 20.5484 9.63367 20.263 9.28217C18.8376 7.52664 17.2563 6.0392 15.4414 5.07321" stroke="#6E6E6E" stroke-width="1.4" stroke-linecap="round" stroke-linejoin="round"/>
<path d="M18.8602 1L1.73828 18.8841" stroke="#6E6E6E" stroke-width="1.5" stroke-linecap="round" stroke-linejoin="round"/>
</svg>
