<svg width="14" height="16" viewBox="0 0 14 16" fill="none" xmlns="http://www.w3.org/2000/svg">
<path d="M12.8945 12.9509C12.8945 13.3552 12.6655 13.7536 12.2264 14.113C11.7874 14.4725 11.151 14.7824 10.3703 15.0172C9.58964 15.252 8.68724 15.4048 7.73818 15.4629C6.78912 15.521 5.82087 15.4827 4.91405 15.3511C4.00722 15.2196 3.18802 14.9987 2.52463 14.7068C1.86125 14.4148 1.37288 14.0603 1.10017 13.6727C0.827453 13.2852 0.77828 12.8757 0.95675 12.4785" stroke="#32B38C" stroke-linecap="round"/>
<path d="M11.2099 7.2302L9.11461 12.0014C8.7415 12.8512 7.8653 13.4193 6.8774 13.4193C5.8895 13.4193 5.01333 12.8512 4.64018 12.0014L2.54491 7.23013C1.2592 4.3024 3.48314 1 6.8774 1C10.2716 1 12.4956 4.3024 11.2099 7.2302Z" stroke="#32B38C"/>
<path d="M6.87256 6.4541C7.70395 6.4541 8.37793 5.78012 8.37793 4.94873C8.37793 4.11734 7.70395 3.44336 6.87256 3.44336C6.04117 3.44336 5.36719 4.11734 5.36719 4.94873C5.36719 5.78012 6.04117 6.4541 6.87256 6.4541Z" stroke="#32B38C"/>
</svg>
