<svg width="14" height="16" viewBox="0 0 14 16" fill="none" xmlns="http://www.w3.org/2000/svg">
<path d="M13.043 12.9509C13.043 13.3552 12.8139 13.7536 12.3749 14.113C11.9358 14.4725 11.2994 14.7824 10.5188 15.0172C9.73808 15.252 8.83568 15.4048 7.88662 15.4629C6.93756 15.521 5.96931 15.4827 5.06249 15.3511C4.15566 15.2196 3.33646 14.9987 2.67307 14.7068C2.00969 14.4148 1.52132 14.0603 1.2486 13.6727C0.975891 13.2852 0.926718 12.8757 1.10519 12.4785" stroke="#FF9A24" stroke-linecap="round"/>
<path d="M11.3583 7.2302L9.26304 12.0014C8.88994 12.8512 8.01374 13.4193 7.02584 13.4193C6.03794 13.4193 5.16177 12.8512 4.78862 12.0014L2.69335 7.23013C1.40764 4.3024 3.63158 1 7.02584 1C10.4201 1 12.644 4.3024 11.3583 7.2302Z" stroke="#FF9A24"/>
<path d="M7.021 6.4541C7.85239 6.4541 8.52637 5.78012 8.52637 4.94873C8.52637 4.11734 7.85239 3.44336 7.021 3.44336C6.1896 3.44336 5.51562 4.11734 5.51562 4.94873C5.51562 5.78012 6.1896 6.4541 7.021 6.4541Z" stroke="#FF9A24"/>
</svg>
