<svg width="22" height="14" viewBox="0 0 22 14" fill="none" xmlns="http://www.w3.org/2000/svg">
<path d="M10.7385 1C6.77855 1 3.74967 3.27449 1.21402 6.3974C0.92866 6.7488 0.92866 7.2512 1.21402 7.6026C3.74967 10.7255 6.77855 13 10.7385 13C14.6985 13 17.7274 10.7255 20.263 7.6026C20.5484 7.2512 20.5484 6.7488 20.263 6.3974C17.7274 3.27449 14.6985 1 10.7385 1Z" stroke="#6E6E6E" stroke-width="1.4" stroke-linecap="round" stroke-linejoin="round"/>
<path d="M13.2383 7C13.2383 8.3807 12.119 9.5 10.7383 9.5C9.35758 9.5 8.23828 8.3807 8.23828 7C8.23828 5.6193 9.35758 4.5 10.7383 4.5C12.119 4.5 13.2383 5.6193 13.2383 7Z" stroke="#6E6E6E" stroke-width="1.4" stroke-linecap="round" stroke-linejoin="round"/>
</svg>
