<svg width="13" height="12" viewBox="0 0 13 12" fill="none" xmlns="http://www.w3.org/2000/svg">
<path d="M6.23395 1.18427C6.3177 0.938578 6.68229 0.938578 6.76605 1.18427L7.87261 4.43121C7.9101 4.54109 8.01751 4.61547 8.13866 4.61547H11.7198C11.9907 4.61547 12.1034 4.94604 11.8842 5.09789L8.98701 7.1046C8.88895 7.17249 8.84795 7.29287 8.88535 7.40274L9.99199 10.6497C10.0758 10.8954 9.78077 11.0997 9.56155 10.9479L6.66439 8.94113C6.56641 8.87324 6.43359 8.87324 6.3356 8.94113L3.43843 10.9479C3.21921 11.0997 2.92426 10.8954 3.00799 10.6497L4.11461 7.40274C4.15206 7.29287 4.11103 7.17249 4.013 7.1046L1.11584 5.09789C0.896621 4.94604 1.00928 4.61547 1.28026 4.61547H4.86133C4.98249 4.61547 5.0899 4.54109 5.12738 4.43121L6.23395 1.18427Z" fill="#32B38C" stroke="#32B38C"/>
</svg>
