<svg width="13" height="12" viewBox="0 0 13 12" fill="none" xmlns="http://www.w3.org/2000/svg">
<path d="M6.15464 1.18427C6.23713 0.938578 6.5962 0.938578 6.67869 1.18427L7.76848 4.43121C7.8054 4.54109 7.91118 4.61547 8.0305 4.61547H11.5574C11.8242 4.61547 11.9352 4.94604 11.7193 5.09789L8.86599 7.1046C8.76942 7.17249 8.72904 7.29287 8.76588 7.40274L9.85575 10.6497C9.93824 10.8954 9.64773 11.0997 9.43183 10.9479L6.57857 8.94113C6.48207 8.87324 6.35126 8.87324 6.25476 8.94113L3.40149 10.9479C3.18559 11.0997 2.8951 10.8954 2.97757 10.6497L4.06742 7.40274C4.1043 7.29287 4.0639 7.17249 3.96735 7.1046L1.11409 5.09789C0.898188 4.94604 1.00914 4.61547 1.27601 4.61547H4.80283C4.92215 4.61547 5.02793 4.54109 5.06485 4.43121L6.15464 1.18427Z" fill="#FF9A24" stroke="#FF9A24"/>
</svg>
